<?xml version="1.0" encoding="UTF-8" standalone="no"?>
<!-- Created with Inkscape (http://www.inkscape.org/) -->

<svg
   xmlns:dc="http://purl.org/dc/elements/1.1/"
   xmlns:cc="http://creativecommons.org/ns#"
   xmlns:rdf="http://www.w3.org/1999/02/22-rdf-syntax-ns#"
   xmlns:svg="http://www.w3.org/2000/svg"
   xmlns="http://www.w3.org/2000/svg"
   xmlns:sodipodi="http://sodipodi.sourceforge.net/DTD/sodipodi-0.dtd"
   xmlns:inkscape="http://www.inkscape.org/namespaces/inkscape"
   id="svg11521"
   version="1.1"
   inkscape:version="0.91 r13725"
   width="48"
   height="48"
   viewBox="0 0 48 48"
   sodipodi:docname="rotate.svg">
  <metadata
     id="metadata11527">
    <rdf:RDF>
      <cc:Work
         rdf:about="">
        <dc:format>image/svg+xml</dc:format>
        <dc:type
           rdf:resource="http://purl.org/dc/dcmitype/StillImage" />
        <dc:title></dc:title>
      </cc:Work>
    </rdf:RDF>
  </metadata>
  <defs
     id="defs11525">
    <marker
       inkscape:stockid="Arrow1Lend"
       orient="auto"
       refY="0.0"
       refX="0.0"
       id="Arrow1Lend"
       style="overflow:visible;"
       inkscape:isstock="true">
      <path
         id="path12141"
         d="M 0.0,0.0 L 5.0,-5.0 L -12.5,0.0 L 5.0,5.0 L 0.0,0.0 z "
         style="fill-rule:evenodd;stroke:#000000;stroke-width:1.0pt;"
         transform="scale(0.8) rotate(180) translate(12.5,0)" />
    </marker>
    <marker
       inkscape:stockid="Arrow1Lstart"
       orient="auto"
       refY="0.0"
       refX="0.0"
       id="Arrow1Lstart"
       style="overflow:visible"
       inkscape:isstock="true">
      <path
         id="path12138"
         d="M 0.0,0.0 L 5.0,-5.0 L -12.5,0.0 L 5.0,5.0 L 0.0,0.0 z "
         style="fill-rule:evenodd;stroke:#000000;stroke-width:1.0pt"
         transform="scale(0.8) translate(12.5,0)" />
    </marker>
  </defs>
  <sodipodi:namedview
     pagecolor="#ffffff"
     bordercolor="#666666"
     borderopacity="1"
     objecttolerance="10"
     gridtolerance="10"
     guidetolerance="10"
     inkscape:pageopacity="0"
     inkscape:pageshadow="2"
     inkscape:window-width="1360"
     inkscape:window-height="705"
     id="namedview11523"
     showgrid="false"
     inkscape:zoom="13.906433"
     inkscape:cx="12.143525"
     inkscape:cy="29.876196"
     inkscape:window-x="-8"
     inkscape:window-y="-8"
     inkscape:window-maximized="1"
     inkscape:current-layer="svg11521" />
  <g
     id="g12128"
     style="stroke:#ffffff;stroke-opacity:1">
    <g
       id="g12088"
       style="stroke:#ffffff;stroke-opacity:1">
      <path
         style="fill:none;fill-opacity:1;stroke:#ffffff;stroke-width:3.09601855;stroke-linecap:round;stroke-linejoin:miter;stroke-miterlimit:4;stroke-dasharray:none;stroke-opacity:1"
         id="path12071"
         sodipodi:type="arc"
         sodipodi:cx="24.000002"
         sodipodi:cy="24"
         sodipodi:rx="22.451992"
         sodipodi:ry="22.45199"
         sodipodi:start="3.2485329"
         sodipodi:end="2.6046864"
         d="M 1.6762705,21.603552 A 22.451992,22.45199 0 0 1 22.787704,1.5807628 22.451992,22.45199 0 0 1 45.93515,19.210298 22.451992,22.45199 0 0 1 32.243281,44.88397 22.451992,22.45199 0 0 1 4.7071134,35.483744"
         sodipodi:open="true" />
      <path
         style="fill:none;fill-opacity:1;stroke:#ffffff;stroke-width:2.38618517;stroke-linecap:round;stroke-linejoin:miter;stroke-miterlimit:4;stroke-dasharray:none;stroke-opacity:1"
         inkscape:transform-center-y="1.0157891"
         d="m 7.7913968,20.291122 -2.992335,2.642979 -2.6292337,2.531264 c 0,0 -0.2502151,-0.627327 -0.4609736,-1.2282 C 1.3423081,23.19214 1.3611946,21.4714 1.3611946,21.4714 l 0.4313699,-1.261643 z"
         id="path12082"
         inkscape:connector-curvature="0"
         sodipodi:nodetypes="cccsccc" />
    </g>
    <path
       id="rect12108"
       d="M 18.232422 16.921875 C 18.051706 16.901364 17.878616 16.951462 17.755859 17.074219 C 17.510346 17.319733 17.56076 17.765838 17.869141 18.074219 L 23.6875 23.892578 L 17.976562 29.603516 C 17.668182 29.911896 17.617767 30.358002 17.863281 30.603516 C 18.108795 30.849029 18.554901 30.798615 18.863281 30.490234 L 24.574219 24.779297 L 29.998047 30.203125 C 30.306427 30.511506 30.752533 30.56192 30.998047 30.316406 C 31.243561 30.070892 31.193146 29.624787 30.884766 29.316406 L 25.460938 23.892578 L 30.992188 18.361328 C 31.300568 18.052947 31.350983 17.606842 31.105469 17.361328 C 30.859955 17.115814 30.413849 17.166229 30.105469 17.474609 L 24.574219 23.005859 L 18.755859 17.1875 C 18.601669 17.03331 18.413137 16.942386 18.232422 16.921875 z "
       style="opacity:0.98999999;fill:none;fill-opacity:1;stroke:#ffffff;stroke-width:4.11281204;stroke-linecap:round;stroke-linejoin:miter;stroke-miterlimit:4;stroke-dasharray:none;stroke-opacity:1" />
  </g>
</svg>
